<svg xmlns="http://www.w3.org/2000/svg" xmlns:xlink="http://www.w3.org/1999/xlink" width="500" zoomAndPan="magnify" viewBox="0 0 375 172.499995" height="230" preserveAspectRatio="xMidYMid meet" version="1.0"><defs><g/><clipPath id="4bba6ade5f"><path d="M 0.542969 0 L 135 0 L 135 74 L 0.542969 74 Z M 0.542969 0 " clip-rule="nonzero"/></clipPath></defs><g clip-path="url(#4bba6ade5f)"><path stroke-linecap="round" transform="matrix(0.747827, 0.00293541, -0.00293541, 0.747827, 34.080473, 4.771007)" fill="none" stroke-linejoin="miter" d="M 7.50109 7.500827 L 49.435101 7.498153 " stroke="#212121" stroke-width="15" stroke-opacity="1" stroke-miterlimit="4"/></g><g fill="#2196f3" fill-opacity="1"><g transform="translate(222.791178, 134.143633)"><g><path d="M 101.886719 -40.699219 C 101.886719 -89.167969 25.578125 -79.980469 25.578125 -110.363281 C 25.578125 -121.953125 35.609375 -129.15625 52.425781 -129.15625 C 75.175781 -129.15625 90.863281 -116.015625 90.863281 -96.375 L 92.699219 -96.375 C 92.699219 -117.289062 75.601562 -131.417969 50.589844 -131.417969 C 23.597656 -131.417969 5.226562 -114.746094 5.226562 -90.722656 C 5.226562 -42.109375 81.535156 -53.980469 81.535156 -21.902344 C 81.535156 -8.902344 70.089844 -2.121094 53.414062 -2.121094 C 25.71875 -2.121094 7.347656 -16.816406 7.347656 -38.71875 L 5.511719 -38.71875 C 5.511719 -15.542969 25.152344 0 54.828125 0 C 82.382812 0 101.886719 -15.96875 101.886719 -40.699219 Z M 101.886719 -40.699219 "/></g></g></g><g fill="#673ab7" fill-opacity="1"><g transform="translate(64.203559, 134.143633)"><g><path d="M 120.253906 -37.871094 C 120.253906 -17.945312 136.363281 -1.835938 156.289062 -1.835938 L 166.746094 -1.835938 L 166.746094 -93.832031 C 166.746094 -113.613281 150.777344 -129.582031 130.996094 -129.582031 L 119.125 -129.582031 L 91.992188 -62.316406 L 71.503906 -108.386719 C 65.710938 -121.246094 52.851562 -129.582031 38.859375 -129.582031 L 11.445312 -129.582031 L 11.445312 -1.835938 L 13.285156 -1.835938 L 13.285156 -127.746094 L 69.242188 0 L 120.253906 -126.898438 Z M 120.253906 -37.871094 "/></g></g></g><path stroke-linecap="round" transform="matrix(0.747832, 0.000000000000000747, -0.000000000000000747, 0.747832, 34.058458, 120.50109)" fill="none" stroke-linejoin="miter" d="M 7.501028 7.499388 L 106.375341 7.499388 " stroke="#212121" stroke-width="15" stroke-opacity="1" stroke-miterlimit="4"/><path stroke-linecap="butt" transform="matrix(0.747832, 0.000000000000002994, -0.000000000000002994, 0.747832, 70.660569, 4.938031)" fill="none" stroke-linejoin="miter" d="M -0.000551688 7.500136 L 7.09809 7.500136 " stroke="#212121" stroke-width="15" stroke-opacity="1" stroke-miterlimit="4"/><g fill="#212121" fill-opacity="1"><g transform="translate(163.758803, 167.753775)"><g><path d="M 1.972656 -22.03125 L 1.972656 -5.652344 C 1.972656 -2.535156 4.507812 0 7.652344 0 L 7.652344 -16.375 C 7.652344 -19.496094 5.117188 -22.03125 1.972656 -22.03125 Z M 1.972656 -22.03125 "/></g></g></g><g fill="#212121" fill-opacity="1"><g transform="translate(173.368947, 167.753775)"><g/></g></g><g fill="#212121" fill-opacity="1"><g transform="translate(177.024177, 167.753775)"><g/></g></g><g fill="#673ab7" fill-opacity="1"><g transform="translate(180.681013, 167.753775)"><g><path d="M 9.140625 -16.375 C 5.652344 -16.375 3.3125 -15.011719 2.339844 -12.527344 L 2.679688 -12.527344 C 3.535156 -14.574219 5.3125 -15.671875 7.382812 -15.671875 C 9.820312 -15.671875 10.796875 -14.304688 10.796875 -11.285156 L 10.796875 -9.164062 C 4.628906 -8.601562 0.828125 -6.703125 0.828125 -3.460938 C 0.828125 -1.730469 1.949219 0 4.65625 0 C 7.796875 0 10.234375 -1.632812 10.917969 -5.703125 L 10.917969 -5.238281 C 10.917969 -2.339844 13.257812 0 16.132812 0 L 16.132812 -9.625 C 16.15625 -14.304688 13.28125 -16.375 9.140625 -16.375 Z M 6.191406 -4.507812 C 6.191406 -6.96875 8.089844 -8.480469 10.796875 -8.917969 L 10.796875 -8.1875 C 10.796875 -3.632812 9.1875 -2.265625 7.96875 -2.265625 C 6.898438 -2.265625 6.191406 -3.023438 6.191406 -4.507812 Z M 6.191406 -4.507812 "/></g></g></g><g fill="#673ab7" fill-opacity="1"><g transform="translate(198.372326, 167.753775)"><g><path d="M 20.738281 -5.777344 C 20.738281 -2.65625 23.296875 -0.121094 26.417969 -0.121094 L 26.417969 -16.5 C 26.417969 -19.617188 23.882812 -22.152344 20.738281 -22.152344 L 20.566406 -22.152344 L 14.597656 -7.382812 L 9.796875 -18.691406 C 8.917969 -20.789062 6.871094 -22.152344 4.582031 -22.152344 L 1.972656 -22.152344 L 1.972656 -0.121094 L 2.289062 -0.121094 L 2.289062 -21.835938 L 11.964844 0.195312 L 20.738281 -21.6875 Z M 20.738281 -5.777344 "/></g></g></g><g fill="#673ab7" fill-opacity="1"><g transform="translate(226.7862, 167.753775)"><g/></g></g><g fill="#673ab7" fill-opacity="1"><g transform="translate(230.44143, 167.753775)"><g/></g></g><g fill="#2196f3" fill-opacity="1"><g transform="translate(234.098266, 167.753775)"><g><path d="M 17.570312 -7.019531 C 17.570312 -15.378906 4.410156 -13.792969 4.410156 -19.03125 C 4.410156 -21.03125 6.140625 -22.273438 9.042969 -22.273438 C 12.964844 -22.273438 15.671875 -20.007812 15.671875 -16.621094 L 15.988281 -16.621094 C 15.988281 -20.226562 13.039062 -22.664062 8.722656 -22.664062 C 4.070312 -22.664062 0.902344 -19.789062 0.902344 -15.644531 C 0.902344 -7.261719 14.0625 -9.308594 14.0625 -3.777344 C 14.0625 -1.535156 12.085938 -0.367188 9.210938 -0.367188 C 4.433594 -0.367188 1.265625 -2.898438 1.265625 -6.675781 L 0.949219 -6.675781 C 0.949219 -2.679688 4.335938 0 9.457031 0 C 14.207031 0 17.570312 -2.753906 17.570312 -7.019531 Z M 17.570312 -7.019531 "/></g></g></g><g fill="#2196f3" fill-opacity="1"><g transform="translate(252.569368, 167.753775)"><g><path d="M 10.285156 -14.574219 C 11.550781 -14.574219 12.136719 -13.695312 12.136719 -11.84375 L 12.136719 -4.53125 C 12.136719 -2.023438 14.183594 0 16.667969 0 L 17.496094 0 L 17.496094 -7.871094 C 17.496094 -9.871094 17.910156 -14.574219 20.761719 -14.574219 C 22.03125 -14.574219 22.640625 -13.695312 22.640625 -11.84375 L 22.640625 -4.53125 C 22.640625 -2.023438 24.664062 0 27.171875 0 L 27.976562 0 L 27.976562 -10.480469 C 27.976562 -13.84375 26.148438 -16.058594 22.808594 -16.058594 C 19.667969 -16.058594 18.105469 -14.085938 17.472656 -11.113281 C 17.253906 -14.132812 15.449219 -16.058594 12.332031 -16.058594 C 9.210938 -16.058594 7.652344 -14.109375 7.019531 -11.210938 C 7.019531 -13.71875 4.996094 -15.742188 2.484375 -15.742188 L 1.65625 -15.742188 L 1.65625 -4.53125 C 1.65625 -2.023438 3.703125 0 6.191406 0 L 7.019531 0 L 7.019531 -8.917969 C 7.214844 -12.0625 8.308594 -14.574219 10.285156 -14.574219 Z M 10.285156 -14.574219 "/></g></g></g><g fill="#2196f3" fill-opacity="1"><g transform="translate(282.103629, 167.753775)"><g><path d="M 9.140625 -16.375 C 5.652344 -16.375 3.3125 -15.011719 2.339844 -12.527344 L 2.679688 -12.527344 C 3.535156 -14.574219 5.3125 -15.671875 7.382812 -15.671875 C 9.820312 -15.671875 10.796875 -14.304688 10.796875 -11.285156 L 10.796875 -9.164062 C 4.628906 -8.601562 0.828125 -6.703125 0.828125 -3.460938 C 0.828125 -1.730469 1.949219 0 4.65625 0 C 7.796875 0 10.234375 -1.632812 10.917969 -5.703125 L 10.917969 -5.238281 C 10.917969 -2.339844 13.257812 0 16.132812 0 L 16.132812 -9.625 C 16.15625 -14.304688 13.28125 -16.375 9.140625 -16.375 Z M 6.191406 -4.507812 C 6.191406 -6.96875 8.089844 -8.480469 10.796875 -8.917969 L 10.796875 -8.1875 C 10.796875 -3.632812 9.1875 -2.265625 7.96875 -2.265625 C 6.898438 -2.265625 6.191406 -3.023438 6.191406 -4.507812 Z M 6.191406 -4.507812 "/></g></g></g><g fill="#2196f3" fill-opacity="1"><g transform="translate(299.794942, 167.753775)"><g><path d="M 12.820312 -15.742188 L 12.820312 -16.058594 C 9.285156 -16.058594 7.652344 -13.941406 7.019531 -11.015625 C 7.019531 -13.621094 4.898438 -15.742188 2.289062 -15.742188 L 1.65625 -15.742188 L 1.65625 -4.726562 C 1.65625 -2.121094 3.777344 0 6.386719 0 L 7.019531 0 L 7.019531 -7.578125 C 7.019531 -11.988281 8.238281 -15.742188 12.820312 -15.742188 Z M 12.820312 -15.742188 "/></g></g></g><g fill="#2196f3" fill-opacity="1"><g transform="translate(312.856296, 167.753775)"><g><path d="M 12.40625 -5.875 L 12.085938 -5.875 C 11.988281 -2.414062 10.234375 -1.339844 9.164062 -1.339844 C 8.019531 -1.339844 7.652344 -2 7.652344 -3.558594 L 7.652344 -15.71875 L 12.085938 -15.71875 L 12.085938 -16.035156 L 7.652344 -16.035156 C 7.652344 -18.300781 5.824219 -20.128906 3.558594 -20.128906 L 2.289062 -20.128906 L 2.289062 -16.035156 L 0.144531 -16.035156 L 0.144531 -15.71875 L 2.289062 -15.71875 L 2.289062 -5.167969 C 2.289062 -1.144531 4.972656 0 7.359375 0 C 9.722656 0 12.40625 -1.609375 12.40625 -5.875 Z M 12.40625 -5.875 "/></g></g></g></svg>