<svg xmlns="http://www.w3.org/2000/svg" xmlns:xlink="http://www.w3.org/1999/xlink" width="500" zoomAndPan="magnify" viewBox="0 0 375 135.000003" height="180" preserveAspectRatio="xMidYMid meet" version="1.0"><defs><g/><clipPath id="70a16c29f5"><path d="M 1.378906 0 L 110 0 L 110 82 L 1.378906 82 Z M 1.378906 0 " clip-rule="nonzero"/></clipPath></defs><g clip-path="url(#70a16c29f5)"><path stroke-linecap="round" transform="matrix(0.74448, 0.00292227, -0.00292227, 0.74448, 8.845624, 7.618798)" fill="none" stroke-linejoin="miter" d="M 7.999007 7.999525 L 44.297432 7.998712 " stroke="#212121" stroke-width="16" stroke-opacity="1" stroke-miterlimit="4"/></g><g fill="#2196f3" fill-opacity="1"><g transform="translate(181.031103, 126.745069)"><g><path d="M 93.164062 -37.214844 C 93.164062 -81.535156 23.386719 -73.136719 23.386719 -100.917969 C 23.386719 -111.511719 32.5625 -118.101562 47.9375 -118.101562 C 68.742188 -118.101562 83.085938 -106.085938 83.085938 -88.125 L 84.765625 -88.125 C 84.765625 -107.25 69.128906 -120.171875 46.257812 -120.171875 C 21.578125 -120.171875 4.78125 -104.921875 4.78125 -82.957031 C 4.78125 -38.507812 74.558594 -49.359375 74.558594 -20.027344 C 74.558594 -8.140625 64.089844 -1.9375 48.84375 -1.9375 C 23.515625 -1.9375 6.71875 -15.375 6.71875 -35.40625 L 5.039062 -35.40625 C 5.039062 -14.214844 23 0 50.136719 0 C 75.332031 0 93.164062 -14.601562 93.164062 -37.214844 Z M 93.164062 -37.214844 "/></g></g></g><g fill="#673ab7" fill-opacity="1"><g transform="translate(36.387095, 126.745069)"><g><path d="M 109.960938 -34.628906 C 109.960938 -16.410156 124.691406 -1.679688 142.914062 -1.679688 L 152.472656 -1.679688 L 152.472656 -85.800781 C 152.472656 -103.890625 137.871094 -118.492188 119.78125 -118.492188 L 108.929688 -118.492188 L 84.121094 -56.984375 L 65.382812 -99.109375 C 60.085938 -110.867188 48.328125 -118.492188 35.535156 -118.492188 L 10.464844 -118.492188 L 10.464844 -1.679688 L 12.144531 -1.679688 L 12.144531 -116.8125 L 63.316406 0 L 109.960938 -116.035156 Z M 109.960938 -34.628906 "/></g></g></g><path stroke-linecap="round" transform="matrix(0.744485, 0.000000000000000809, -0.000000000000000809, 0.744485, 8.822246, 113.44303)" fill="none" stroke-linejoin="miter" d="M 7.998947 7.999362 L 96.593084 7.999362 " stroke="#212121" stroke-width="16" stroke-opacity="1" stroke-miterlimit="4"/><path stroke-linecap="butt" transform="matrix(0.744485, 0.000000000000003245, -0.000000000000003245, 0.744485, 42.291417, 7.771534)" fill="none" stroke-linejoin="miter" d="M 0.00208491 7.998853 L 6.518752 7.998853 " stroke="#212121" stroke-width="16" stroke-opacity="1" stroke-miterlimit="4"/><g fill="#212121" fill-opacity="1"><g transform="translate(283.658438, 95.135863)"><g><path d="M 1.804688 -20.144531 L 1.804688 -5.167969 C 1.804688 -2.316406 4.121094 0 6.996094 0 L 6.996094 -14.976562 C 6.996094 -17.828125 4.679688 -20.144531 1.804688 -20.144531 Z M 1.804688 -20.144531 "/></g></g></g><g fill="#212121" fill-opacity="1"><g transform="translate(292.446006, 95.135863)"><g/></g></g><g fill="#212121" fill-opacity="1"><g transform="translate(295.788368, 95.135863)"><g/></g></g><g fill="#673ab7" fill-opacity="1"><g transform="translate(299.1322, 95.135863)"><g><path d="M 8.355469 -14.976562 C 5.167969 -14.976562 3.03125 -13.726562 2.140625 -11.453125 L 2.453125 -11.453125 C 3.230469 -13.324219 4.859375 -14.328125 6.753906 -14.328125 C 8.980469 -14.328125 9.871094 -13.082031 9.871094 -10.316406 L 9.871094 -8.378906 C 4.234375 -7.867188 0.757812 -6.128906 0.757812 -3.164062 C 0.757812 -1.582031 1.78125 0 4.257812 0 C 7.132812 0 9.359375 -1.492188 9.984375 -5.214844 L 9.984375 -4.792969 C 9.984375 -2.140625 12.121094 0 14.753906 0 L 14.753906 -8.800781 C 14.773438 -13.082031 12.144531 -14.976562 8.355469 -14.976562 Z M 5.660156 -4.121094 C 5.660156 -6.375 7.398438 -7.753906 9.871094 -8.15625 L 9.871094 -7.488281 C 9.871094 -3.320312 8.402344 -2.074219 7.285156 -2.074219 C 6.304688 -2.074219 5.660156 -2.761719 5.660156 -4.121094 Z M 5.660156 -4.121094 "/></g></g></g><g fill="#673ab7" fill-opacity="1"><g transform="translate(315.309234, 95.135863)"><g><path d="M 18.964844 -5.28125 C 18.964844 -2.429688 21.304688 -0.113281 24.15625 -0.113281 L 24.15625 -15.085938 C 24.15625 -17.9375 21.839844 -20.257812 18.964844 -20.257812 L 18.808594 -20.257812 L 13.347656 -6.753906 L 8.957031 -17.09375 C 8.15625 -19.007812 6.285156 -20.257812 4.1875 -20.257812 L 1.804688 -20.257812 L 1.804688 -0.113281 L 2.09375 -0.113281 L 2.09375 -19.964844 L 10.941406 0.179688 L 18.964844 -19.832031 Z M 18.964844 -5.28125 "/></g></g></g><g fill="#673ab7" fill-opacity="1"><g transform="translate(341.291038, 95.135863)"><g/></g></g><g fill="#2196f3" fill-opacity="1"><g transform="translate(280.601919, 124.022731)"><g/></g></g><g fill="#2196f3" fill-opacity="1"><g transform="translate(283.945016, 124.022731)"><g><path d="M 16.066406 -6.417969 C 16.066406 -14.0625 4.035156 -12.613281 4.035156 -17.402344 C 4.035156 -19.230469 5.617188 -20.367188 8.265625 -20.367188 C 11.855469 -20.367188 14.328125 -18.296875 14.328125 -15.199219 L 14.617188 -15.199219 C 14.617188 -18.496094 11.921875 -20.722656 7.976562 -20.722656 C 3.722656 -20.722656 0.824219 -18.09375 0.824219 -14.304688 C 0.824219 -6.640625 12.859375 -8.511719 12.859375 -3.453125 C 12.859375 -1.402344 11.054688 -0.335938 8.421875 -0.335938 C 4.054688 -0.335938 1.160156 -2.652344 1.160156 -6.105469 L 0.867188 -6.105469 C 0.867188 -2.453125 3.964844 0 8.644531 0 C 12.992188 0 16.066406 -2.519531 16.066406 -6.417969 Z M 16.066406 -6.417969 "/></g></g></g><g fill="#2196f3" fill-opacity="1"><g transform="translate(300.835094, 124.022731)"><g><path d="M 9.402344 -13.324219 C 10.5625 -13.324219 11.097656 -12.523438 11.097656 -10.832031 L 11.097656 -4.144531 C 11.097656 -1.847656 12.96875 0 15.242188 0 L 16 0 L 16 -7.199219 C 16 -9.023438 16.378906 -13.324219 18.984375 -13.324219 C 20.144531 -13.324219 20.703125 -12.523438 20.703125 -10.832031 L 20.703125 -4.144531 C 20.703125 -1.847656 22.550781 0 24.847656 0 L 25.582031 0 L 25.582031 -9.582031 C 25.582031 -12.65625 23.910156 -14.683594 20.859375 -14.683594 C 17.984375 -14.683594 16.558594 -12.878906 15.976562 -10.160156 C 15.777344 -12.925781 14.128906 -14.683594 11.277344 -14.683594 C 8.421875 -14.683594 6.996094 -12.902344 6.417969 -10.25 C 6.417969 -12.546875 4.566406 -14.394531 2.273438 -14.394531 L 1.515625 -14.394531 L 1.515625 -4.144531 C 1.515625 -1.847656 3.386719 0 5.660156 0 L 6.417969 0 L 6.417969 -8.15625 C 6.597656 -11.03125 7.597656 -13.324219 9.402344 -13.324219 Z M 9.402344 -13.324219 "/></g></g></g><g fill="#2196f3" fill-opacity="1"><g transform="translate(327.841385, 124.022731)"><g><path d="M 8.355469 -14.976562 C 5.167969 -14.976562 3.03125 -13.726562 2.140625 -11.453125 L 2.453125 -11.453125 C 3.230469 -13.324219 4.859375 -14.328125 6.753906 -14.328125 C 8.980469 -14.328125 9.871094 -13.082031 9.871094 -10.316406 L 9.871094 -8.378906 C 4.234375 -7.867188 0.757812 -6.128906 0.757812 -3.164062 C 0.757812 -1.582031 1.78125 0 4.257812 0 C 7.132812 0 9.359375 -1.492188 9.984375 -5.214844 L 9.984375 -4.792969 C 9.984375 -2.140625 12.121094 0 14.753906 0 L 14.753906 -8.800781 C 14.773438 -13.082031 12.144531 -14.976562 8.355469 -14.976562 Z M 5.660156 -4.121094 C 5.660156 -6.375 7.398438 -7.753906 9.871094 -8.15625 L 9.871094 -7.488281 C 9.871094 -3.320312 8.402344 -2.074219 7.285156 -2.074219 C 6.304688 -2.074219 5.660156 -2.761719 5.660156 -4.121094 Z M 5.660156 -4.121094 "/></g></g></g><g fill="#2196f3" fill-opacity="1"><g transform="translate(344.018419, 124.022731)"><g><path d="M 11.722656 -14.394531 L 11.722656 -14.683594 C 8.492188 -14.683594 6.996094 -12.746094 6.417969 -10.074219 C 6.417969 -12.457031 4.480469 -14.394531 2.09375 -14.394531 L 1.515625 -14.394531 L 1.515625 -4.324219 C 1.515625 -1.9375 3.453125 0 5.839844 0 L 6.417969 0 L 6.417969 -6.929688 C 6.417969 -10.964844 7.53125 -14.394531 11.722656 -14.394531 Z M 11.722656 -14.394531 "/></g></g></g><g fill="#2196f3" fill-opacity="1"><g transform="translate(355.961793, 124.022731)"><g><path d="M 11.34375 -5.371094 L 11.054688 -5.371094 C 10.964844 -2.207031 9.359375 -1.226562 8.378906 -1.226562 C 7.332031 -1.226562 6.996094 -1.828125 6.996094 -3.253906 L 6.996094 -14.375 L 11.054688 -14.375 L 11.054688 -14.664062 L 6.996094 -14.664062 C 6.996094 -16.734375 5.324219 -18.40625 3.253906 -18.40625 L 2.09375 -18.40625 L 2.09375 -14.664062 L 0.132812 -14.664062 L 0.132812 -14.375 L 2.09375 -14.375 L 2.09375 -4.722656 C 2.09375 -1.046875 4.546875 0 6.730469 0 C 8.890625 0 11.34375 -1.472656 11.34375 -5.371094 Z M 11.34375 -5.371094 "/></g></g></g></svg>